<svg width="94" height="94" viewBox="0 0 94 94" fill="none" xmlns="http://www.w3.org/2000/svg">
<rect width="94" height="94" rx="10" fill="#D9D9D9"/>
<rect x="4" y="4" width="87" height="87" rx="43.5" fill="#1E1E1E"/>
<rect x="6.71428" y="6.71426" width="80.5714" height="80.5714" rx="1" fill="#2C2C2C"/>
<rect x="8.95238" y="8.9523" width="76.0952" height="76.0952" rx="1" fill="#D9D9D9"/>
<rect x="11.1905" y="11.1902" width="71.6191" height="71.6191" rx="1" fill="#1E1E1E"/>
<rect x="13.4286" y="13.4286" width="67.1429" height="67.1429" rx="1" fill="#2C2C2C"/>
<ellipse cx="47.5" cy="66" rx="23.5" ry="23" fill="black"/>
<ellipse cx="29" cy="48" rx="24" ry="23" fill="black"/>
<ellipse cx="66" cy="46.5" rx="24" ry="22.5" fill="black"/>
<ellipse cx="47.5" cy="28" rx="23.5" ry="23" fill="black"/>
<ellipse cx="47.5" cy="65" rx="23.5" ry="23" fill="#252121"/>
<ellipse cx="30" cy="48" rx="24" ry="23" fill="#252121"/>
<ellipse cx="65" cy="46.5" rx="24" ry="22.5" fill="#252121"/>
<ellipse cx="47.5" cy="29" rx="23.5" ry="23" fill="#252121"/>
<path d="M48 31L66.1865 57.25H29.8135L48 31Z" fill="black"/>
<path d="M48 32L65.3205 56.75H30.6795L48 32Z" fill="#E23232"/>
</svg>
