<svg width="324" height="68" viewBox="0 0 324 68" fill="none" xmlns="http://www.w3.org/2000/svg">
<rect width="324" height="60" fill="#D74C4C"/>
<line x1="297.5" y1="15" x2="297.5" y2="45" stroke="white"/>
<line x1="283" y1="29.5" x2="313" y2="29.5" stroke="white"/>
<g filter="url(#filter0_d_63_2)">
<line x1="268.5" x2="268.5" y2="60" stroke="#252121"/>
</g>
<path d="M29.7727 42H26.8182L35.3636 18.7273H38.2727L46.8182 42H43.8636L36.9091 22.4091H36.7273L29.7727 42ZM30.8636 32.9091H42.7727V35.4091H30.8636V32.9091ZM56.6705 42.3636C55.2159 42.3636 53.9318 41.9962 52.8182 41.2614C51.7045 40.5189 50.8333 39.4735 50.2045 38.125C49.5758 36.7689 49.2614 35.1667 49.2614 33.3182C49.2614 31.4848 49.5758 29.8939 50.2045 28.5455C50.8333 27.197 51.7083 26.1553 52.8295 25.4205C53.9508 24.6856 55.2462 24.3182 56.7159 24.3182C57.8523 24.3182 58.75 24.5076 59.4091 24.8864C60.0758 25.2576 60.5833 25.6818 60.9318 26.1591C61.2879 26.6288 61.5644 27.0152 61.7614 27.3182H61.9886V18.7273H64.6705V42H62.0795V39.3182H61.7614C61.5644 39.6364 61.2841 40.0379 60.9205 40.5227C60.5568 41 60.0379 41.428 59.3636 41.8068C58.6894 42.178 57.7917 42.3636 56.6705 42.3636ZM57.0341 39.9545C58.1098 39.9545 59.0189 39.6742 59.7614 39.1136C60.5038 38.5455 61.0682 37.7614 61.4545 36.7614C61.8409 35.7538 62.0341 34.5909 62.0341 33.2727C62.0341 31.9697 61.8447 30.8295 61.4659 29.8523C61.0871 28.8674 60.5265 28.1023 59.7841 27.5568C59.0417 27.0038 58.125 26.7273 57.0341 26.7273C55.8977 26.7273 54.9508 27.0189 54.1932 27.6023C53.4432 28.178 52.8788 28.9621 52.5 29.9545C52.1288 30.9394 51.9432 32.0455 51.9432 33.2727C51.9432 34.5152 52.1326 35.6439 52.5114 36.6591C52.8977 37.6667 53.4659 38.4697 54.2159 39.0682C54.9735 39.6591 55.9129 39.9545 57.0341 39.9545ZM76.5455 42.3636C75.0909 42.3636 73.8068 41.9962 72.6932 41.2614C71.5795 40.5189 70.7083 39.4735 70.0795 38.125C69.4508 36.7689 69.1364 35.1667 69.1364 33.3182C69.1364 31.4848 69.4508 29.8939 70.0795 28.5455C70.7083 27.197 71.5833 26.1553 72.7045 25.4205C73.8258 24.6856 75.1212 24.3182 76.5909 24.3182C77.7273 24.3182 78.625 24.5076 79.2841 24.8864C79.9508 25.2576 80.4583 25.6818 80.8068 26.1591C81.1629 26.6288 81.4394 27.0152 81.6364 27.3182H81.8636V18.7273H84.5455V42H81.9545V39.3182H81.6364C81.4394 39.6364 81.1591 40.0379 80.7955 40.5227C80.4318 41 79.9129 41.428 79.2386 41.8068C78.5644 42.178 77.6667 42.3636 76.5455 42.3636ZM76.9091 39.9545C77.9848 39.9545 78.8939 39.6742 79.6364 39.1136C80.3788 38.5455 80.9432 37.7614 81.3295 36.7614C81.7159 35.7538 81.9091 34.5909 81.9091 33.2727C81.9091 31.9697 81.7197 30.8295 81.3409 29.8523C80.9621 28.8674 80.4015 28.1023 79.6591 27.5568C78.9167 27.0038 78 26.7273 76.9091 26.7273C75.7727 26.7273 74.8258 27.0189 74.0682 27.6023C73.3182 28.178 72.7538 28.9621 72.375 29.9545C72.0038 30.9394 71.8182 32.0455 71.8182 33.2727C71.8182 34.5152 72.0076 35.6439 72.3864 36.6591C72.7727 37.6667 73.3409 38.4697 74.0909 39.0682C74.8485 39.6591 75.7879 39.9545 76.9091 39.9545ZM117.92 26H115.102C114.936 25.1894 114.644 24.4773 114.227 23.8636C113.818 23.25 113.318 22.7348 112.727 22.3182C112.144 21.8939 111.496 21.5758 110.784 21.3636C110.072 21.1515 109.33 21.0455 108.557 21.0455C107.148 21.0455 105.871 21.4015 104.727 22.1136C103.591 22.8258 102.686 23.875 102.011 25.2614C101.345 26.6477 101.011 28.3485 101.011 30.3636C101.011 32.3788 101.345 34.0795 102.011 35.4659C102.686 36.8523 103.591 37.9015 104.727 38.6136C105.871 39.3258 107.148 39.6818 108.557 39.6818C109.33 39.6818 110.072 39.5758 110.784 39.3636C111.496 39.1515 112.144 38.8371 112.727 38.4205C113.318 37.9962 113.818 37.4773 114.227 36.8636C114.644 36.2424 114.936 35.5303 115.102 34.7273H117.92C117.708 35.9167 117.322 36.9811 116.761 37.9205C116.201 38.8598 115.504 39.6591 114.67 40.3182C113.837 40.9697 112.902 41.4659 111.864 41.8068C110.833 42.1477 109.731 42.3182 108.557 42.3182C106.572 42.3182 104.807 41.8333 103.261 40.8636C101.716 39.8939 100.5 38.5152 99.6136 36.7273C98.7273 34.9394 98.2841 32.8182 98.2841 30.3636C98.2841 27.9091 98.7273 25.7879 99.6136 24C100.5 22.2121 101.716 20.8333 103.261 19.8636C104.807 18.8939 106.572 18.4091 108.557 18.4091C109.731 18.4091 110.833 18.5795 111.864 18.9205C112.902 19.2614 113.837 19.7614 114.67 20.4205C115.504 21.072 116.201 21.8674 116.761 22.8068C117.322 23.7386 117.708 24.803 117.92 26ZM124.793 31.5V42H122.111V18.7273H124.793V27.2727H125.02C125.429 26.3712 126.043 25.6553 126.861 25.125C127.687 24.5871 128.785 24.3182 130.156 24.3182C131.346 24.3182 132.387 24.5568 133.281 25.0341C134.175 25.5038 134.868 26.2273 135.361 27.2045C135.861 28.1742 136.111 29.4091 136.111 30.9091V42H133.429V31.0909C133.429 29.7045 133.069 28.6326 132.349 27.875C131.637 27.1098 130.649 26.7273 129.384 26.7273C128.505 26.7273 127.717 26.9129 127.02 27.2841C126.33 27.6553 125.785 28.197 125.384 28.9091C124.99 29.6212 124.793 30.4848 124.793 31.5ZM146.153 42.4091C145.047 42.4091 144.044 42.2008 143.142 41.7841C142.241 41.3598 141.525 40.75 140.994 39.9545C140.464 39.1515 140.199 38.1818 140.199 37.0455C140.199 36.0455 140.396 35.2348 140.79 34.6136C141.184 33.9848 141.71 33.4924 142.369 33.1364C143.028 32.7803 143.756 32.5152 144.551 32.3409C145.354 32.1591 146.161 32.0152 146.972 31.9091C148.032 31.7727 148.892 31.6705 149.551 31.6023C150.218 31.5265 150.703 31.4015 151.006 31.2273C151.316 31.053 151.472 30.75 151.472 30.3182V30.2273C151.472 29.1061 151.165 28.2348 150.551 27.6136C149.945 26.9924 149.025 26.6818 147.79 26.6818C146.509 26.6818 145.506 26.9621 144.778 27.5227C144.051 28.0833 143.54 28.6818 143.244 29.3182L140.699 28.4091C141.153 27.3485 141.759 26.5227 142.517 25.9318C143.282 25.3333 144.116 24.9167 145.017 24.6818C145.926 24.4394 146.82 24.3182 147.699 24.3182C148.259 24.3182 148.903 24.3864 149.631 24.5227C150.366 24.6515 151.074 24.9205 151.756 25.3295C152.445 25.7386 153.017 26.3561 153.472 27.1818C153.926 28.0076 154.153 29.1136 154.153 30.5V42H151.472V39.6364H151.335C151.153 40.0152 150.85 40.4205 150.426 40.8523C150.002 41.2841 149.438 41.6515 148.733 41.9545C148.028 42.2576 147.169 42.4091 146.153 42.4091ZM146.562 40C147.623 40 148.517 39.7917 149.244 39.375C149.979 38.9583 150.532 38.4205 150.903 37.7614C151.282 37.1023 151.472 36.4091 151.472 35.6818V33.2273C151.358 33.3636 151.108 33.4886 150.722 33.6023C150.343 33.7083 149.903 33.803 149.403 33.8864C148.911 33.9621 148.43 34.0303 147.96 34.0909C147.498 34.1439 147.123 34.1894 146.835 34.2273C146.138 34.3182 145.487 34.4659 144.881 34.6705C144.282 34.8674 143.797 35.1667 143.426 35.5682C143.063 35.9621 142.881 36.5 142.881 37.1818C142.881 38.1136 143.225 38.8182 143.915 39.2955C144.612 39.7652 145.494 40 146.562 40ZM159.048 42V24.5455H161.639V27.1818H161.821C162.139 26.3182 162.715 25.6174 163.548 25.0795C164.382 24.5417 165.321 24.2727 166.366 24.2727C166.563 24.2727 166.81 24.2765 167.105 24.2841C167.401 24.2917 167.624 24.303 167.776 24.3182V27.0455C167.685 27.0227 167.476 26.9886 167.151 26.9432C166.832 26.8902 166.495 26.8636 166.139 26.8636C165.291 26.8636 164.533 27.0417 163.866 27.3977C163.207 27.7462 162.685 28.2311 162.298 28.8523C161.92 29.4659 161.73 30.1667 161.73 30.9545V42H159.048ZM176.091 42.4091C174.985 42.4091 173.981 42.2008 173.08 41.7841C172.178 41.3598 171.462 40.75 170.932 39.9545C170.402 39.1515 170.136 38.1818 170.136 37.0455C170.136 36.0455 170.333 35.2348 170.727 34.6136C171.121 33.9848 171.648 33.4924 172.307 33.1364C172.966 32.7803 173.693 32.5152 174.489 32.3409C175.292 32.1591 176.098 32.0152 176.909 31.9091C177.97 31.7727 178.83 31.6705 179.489 31.6023C180.155 31.5265 180.64 31.4015 180.943 31.2273C181.254 31.053 181.409 30.75 181.409 30.3182V30.2273C181.409 29.1061 181.102 28.2348 180.489 27.6136C179.883 26.9924 178.962 26.6818 177.727 26.6818C176.447 26.6818 175.443 26.9621 174.716 27.5227C173.989 28.0833 173.477 28.6818 173.182 29.3182L170.636 28.4091C171.091 27.3485 171.697 26.5227 172.455 25.9318C173.22 25.3333 174.053 24.9167 174.955 24.6818C175.864 24.4394 176.758 24.3182 177.636 24.3182C178.197 24.3182 178.841 24.3864 179.568 24.5227C180.303 24.6515 181.011 24.9205 181.693 25.3295C182.383 25.7386 182.955 26.3561 183.409 27.1818C183.864 28.0076 184.091 29.1136 184.091 30.5V42H181.409V39.6364H181.273C181.091 40.0152 180.788 40.4205 180.364 40.8523C179.939 41.2841 179.375 41.6515 178.67 41.9545C177.966 42.2576 177.106 42.4091 176.091 42.4091ZM176.5 40C177.561 40 178.455 39.7917 179.182 39.375C179.917 38.9583 180.47 38.4205 180.841 37.7614C181.22 37.1023 181.409 36.4091 181.409 35.6818V33.2273C181.295 33.3636 181.045 33.4886 180.659 33.6023C180.28 33.7083 179.841 33.803 179.341 33.8864C178.848 33.9621 178.367 34.0303 177.898 34.0909C177.436 34.1439 177.061 34.1894 176.773 34.2273C176.076 34.3182 175.424 34.4659 174.818 34.6705C174.22 34.8674 173.735 35.1667 173.364 35.5682C173 35.9621 172.818 36.5 172.818 37.1818C172.818 38.1136 173.163 38.8182 173.852 39.2955C174.549 39.7652 175.432 40 176.5 40ZM196.077 42.3636C194.44 42.3636 193.031 41.9773 191.849 41.2045C190.668 40.4318 189.759 39.3674 189.122 38.0114C188.486 36.6553 188.168 35.1061 188.168 33.3636C188.168 31.5909 188.493 30.0265 189.145 28.6705C189.804 27.3068 190.721 26.2424 191.895 25.4773C193.077 24.7045 194.455 24.3182 196.031 24.3182C197.259 24.3182 198.365 24.5455 199.349 25C200.334 25.4545 201.141 26.0909 201.77 26.9091C202.399 27.7273 202.789 28.6818 202.94 29.7727H200.259C200.054 28.9773 199.599 28.2727 198.895 27.6591C198.198 27.0379 197.259 26.7273 196.077 26.7273C195.031 26.7273 194.115 27 193.327 27.5455C192.546 28.0833 191.937 28.8447 191.497 29.8295C191.065 30.8068 190.849 31.9545 190.849 33.2727C190.849 34.6212 191.062 35.7955 191.486 36.7955C191.918 37.7955 192.524 38.572 193.304 39.125C194.092 39.678 195.016 39.9545 196.077 39.9545C196.774 39.9545 197.406 39.8333 197.974 39.5909C198.543 39.3485 199.024 39 199.418 38.5455C199.812 38.0909 200.092 37.5455 200.259 36.9091H202.94C202.789 37.9394 202.414 38.8674 201.815 39.6932C201.224 40.5114 200.44 41.1629 199.463 41.6477C198.493 42.125 197.365 42.3636 196.077 42.3636ZM214.452 24.5455V26.8182H205.406V24.5455H214.452ZM208.043 20.3636H210.724V37C210.724 37.7576 210.834 38.3258 211.054 38.7045C211.281 39.0758 211.569 39.3258 211.918 39.4545C212.274 39.5758 212.649 39.6364 213.043 39.6364C213.338 39.6364 213.58 39.6212 213.77 39.5909C213.959 39.553 214.111 39.5227 214.224 39.5L214.77 41.9091C214.588 41.9773 214.334 42.0455 214.009 42.1136C213.683 42.1894 213.27 42.2273 212.77 42.2273C212.012 42.2273 211.27 42.0644 210.543 41.7386C209.823 41.4129 209.224 40.9167 208.747 40.25C208.277 39.5833 208.043 38.7424 208.043 37.7273V20.3636ZM225.616 42.3636C223.935 42.3636 222.484 41.9924 221.264 41.25C220.052 40.5 219.116 39.4545 218.457 38.1136C217.806 36.7652 217.48 35.197 217.48 33.4091C217.48 31.6212 217.806 30.0455 218.457 28.6818C219.116 27.3106 220.033 26.2424 221.207 25.4773C222.389 24.7045 223.768 24.3182 225.344 24.3182C226.253 24.3182 227.151 24.4697 228.037 24.7727C228.923 25.0758 229.73 25.5682 230.457 26.25C231.185 26.9242 231.764 27.8182 232.196 28.9318C232.628 30.0455 232.844 31.4167 232.844 33.0455V34.1818H219.389V31.8636H230.116C230.116 30.8788 229.92 30 229.526 29.2273C229.139 28.4545 228.586 27.8447 227.866 27.3977C227.154 26.9508 226.313 26.7273 225.344 26.7273C224.276 26.7273 223.351 26.9924 222.571 27.5227C221.798 28.0455 221.204 28.7273 220.787 29.5682C220.37 30.4091 220.162 31.3106 220.162 32.2727V33.8182C220.162 35.1364 220.389 36.2538 220.844 37.1705C221.306 38.0795 221.946 38.7727 222.764 39.25C223.582 39.7197 224.533 39.9545 225.616 39.9545C226.321 39.9545 226.957 39.8561 227.526 39.6591C228.101 39.4545 228.598 39.1515 229.014 38.75C229.431 38.3409 229.753 37.8333 229.98 37.2273L232.571 37.9545C232.298 38.8333 231.84 39.6061 231.196 40.2727C230.552 40.9318 229.757 41.447 228.81 41.8182C227.863 42.1818 226.798 42.3636 225.616 42.3636ZM236.923 42V24.5455H239.514V27.1818H239.696C240.014 26.3182 240.59 25.6174 241.423 25.0795C242.257 24.5417 243.196 24.2727 244.241 24.2727C244.438 24.2727 244.685 24.2765 244.98 24.2841C245.276 24.2917 245.499 24.303 245.651 24.3182V27.0455C245.56 27.0227 245.351 26.9886 245.026 26.9432C244.707 26.8902 244.37 26.8636 244.014 26.8636C243.166 26.8636 242.408 27.0417 241.741 27.3977C241.082 27.7462 240.56 28.2311 240.173 28.8523C239.795 29.4659 239.605 30.1667 239.605 30.9545V42H236.923Z" fill="white"/>
<defs>
<filter id="filter0_d_63_2" x="264" y="0" width="9" height="68" filterUnits="userSpaceOnUse" color-interpolation-filters="sRGB">
<feFlood flood-opacity="0" result="BackgroundImageFix"/>
<feColorMatrix in="SourceAlpha" type="matrix" values="0 0 0 0 0 0 0 0 0 0 0 0 0 0 0 0 0 0 127 0" result="hardAlpha"/>
<feOffset dy="4"/>
<feGaussianBlur stdDeviation="2"/>
<feComposite in2="hardAlpha" operator="out"/>
<feColorMatrix type="matrix" values="0 0 0 0 0 0 0 0 0 0 0 0 0 0 0 0 0 0 0.25 0"/>
<feBlend mode="normal" in2="BackgroundImageFix" result="effect1_dropShadow_63_2"/>
<feBlend mode="normal" in="SourceGraphic" in2="effect1_dropShadow_63_2" result="shape"/>
</filter>
</defs>
</svg>
